<svg width="30" height="30" viewBox="0 0 30 30" fill="none" xmlns="http://www.w3.org/2000/svg">
<path d="M18.2 19.8L15 23C13.8933 24.1067 12.56 24.66 11 24.66C9.44 24.66 8.10667 24.1067 7 23C5.89333 21.8933 5.34 20.56 5.34 19C5.34 17.44 5.89333 16.1067 7 15L10.2 11.8L11.8 13.4L8.6 16.6C7.93333 17.2667 7.6 18.0667 7.6 19C7.6 19.9333 7.93333 20.7333 8.6 21.4C9.26667 22.0667 10.0667 22.4 11 22.4C11.9333 22.4 12.7333 22.0667 13.4 21.4L16.6 18.2L18.2 19.8ZM12.6 19L11 17.4L17.4 11L19 12.6L12.6 19ZM19.8 18.2L18.2 16.6L21.4 13.4C22.0667 12.7333 22.4 11.9333 22.4 11C22.4 10.0667 22.0667 9.26667 21.4 8.6C20.7333 7.93333 19.9333 7.6 19 7.6C18.0667 7.6 17.2667 7.93333 16.6 8.6L13.4 11.8L11.8 10.2L15 7C16.1067 5.89333 17.44 5.34 19 5.34C20.56 5.34 21.8933 5.89333 23 7C24.1067 8.10667 24.66 9.44 24.66 11C24.66 12.56 24.1067 13.8933 23 15L19.8 18.2Z" fill="black"/>
</svg>
