<svg width="30" height="30" viewBox="0 0 30 30" fill="none" xmlns="http://www.w3.org/2000/svg">
<path d="M24.75 26.2292L16.6458 18.125C16.0208 18.6528 15.2954 19.066 14.4696 19.3646C13.6438 19.6632 12.765 19.8125 11.8333 19.8125C9.57416 19.8125 7.66214 19.0295 6.09728 17.4635C4.53243 15.8976 3.75 14 3.75 11.7708C3.75 9.54168 4.53299 7.6441 6.09897 6.07812C7.66493 4.51215 9.56597 3.72916 11.8021 3.72916C14.0382 3.72916 15.9358 4.51215 17.4948 6.07812C19.0538 7.6441 19.8333 9.54272 19.8333 11.774C19.8333 12.6747 19.6875 13.5382 19.3958 14.3646C19.1042 15.191 18.6806 15.9514 18.125 16.6458L26.25 24.7292L24.75 26.2292ZM11.8125 17.7292C13.4618 17.7292 14.8637 17.1476 16.0182 15.9844C17.1727 14.8212 17.75 13.4167 17.75 11.7708C17.75 10.125 17.1727 8.72047 16.0182 7.55728C14.8637 6.39409 13.4618 5.8125 11.8125 5.8125C10.1516 5.8125 8.73987 6.39409 7.57725 7.55728C6.41463 8.72047 5.83331 10.125 5.83331 11.7708C5.83331 13.4167 6.41463 14.8212 7.57725 15.9844C8.73987 17.1476 10.1516 17.7292 11.8125 17.7292Z" fill="black"/>
</svg>
